<?xml version="1.0" encoding="UTF-8"?>
<svg id="Layer_1" data-name="Layer 1" xmlns="http://www.w3.org/2000/svg" viewBox="0 0 802.1 140.67">
  <defs>
    <style>
      .cls-1 {
        font-family: AdobeHebrew-Regular, 'Adobe Hebrew';
        font-size: 46.92px;
      }

      .cls-1, .cls-2 {
        fill: #497d9c;
      }

      .cls-3 {
        letter-spacing: 0em;
      }

      .cls-4 {
        letter-spacing: .02em;
      }

      .cls-5 {
        letter-spacing: .01em;
      }
    </style>
  </defs>
  <g>
    <g>
      <path class="cls-2" d="M15.9,62.09l3.17-.86c2.95-.79,3.38-1.22,3.38-7.42v-30.03c0-6.19-.43-6.62-3.38-7.42l-3.17-.86v-1.01h21.89v1.01l-4.25.86c-3.02.65-3.74,1.22-3.74,7.42v28.95c0,6.77,1.01,7.42,3.96,7.42h4.54c7.42,0,9.79-1.01,10.94-4.1l1.73-4.75,1.51.29-2.3,11.52H15.9v-1.01h0Z"/>
      <path class="cls-2" d="M57.3,62.09l3.17-.86c2.95-.79,3.38-1.22,3.38-7.42v-30.03c0-6.19-.43-6.62-3.38-7.42l-3.17-.86v-1.01h20.45v1.01l-3.17.86c-2.95.79-3.38,1.22-3.38,7.42v30.03c0,6.19.43,6.62,3.38,7.42l3.17.86v1.01h-20.45v-1.01Z"/>
      <path class="cls-2" d="M82.72,38.69c0-15.55,11.02-25.56,27.72-25.56,5.54,0,11.02.65,16.2,2.3v10.37h-1.37l-.86-3.46c-.86-3.6-5.69-6.19-14.04-6.19-13.18,0-19.15,9.14-19.15,21.39,0,12.96,4.82,23.69,19.3,23.69,2.09,0,4.25-.22,6.34-.72,2.52-.58,3.1-1.8,3.1-5.76v-3.02c0-6.19-1.08-6.84-4.1-7.42l-4.61-.86v-1.01h22.61v1.01l-3.24.86c-2.95.79-3.46,1.22-3.38,7.42l.07,9.58c-4.82,1.44-11.59,2.81-17.5,2.81-16.2,0-27.07-8.5-27.07-25.42h-.02Z"/>
      <path class="cls-2" d="M137.29,62.09l3.17-.86c2.95-.79,3.38-1.22,3.38-7.42v-30.03c0-6.19-.43-6.62-3.38-7.42l-3.17-.86v-1.01h20.45v1.01l-3.17.86c-2.95.79-3.38,1.22-3.38,7.42v11.95h25.56v-11.95c0-6.19-.43-6.62-3.38-7.42l-3.17-.86v-1.01h20.45v1.01l-3.17.86c-2.95.79-3.38,1.22-3.38,7.42v30.03c0,6.19.43,6.62,3.38,7.42l3.17.86v1.01h-20.45v-1.01l3.17-.86c2.95-.79,3.38-1.22,3.38-7.42v-14.98h-25.56v14.98c0,6.19.43,6.62,3.38,7.42l3.17.86v1.01h-20.45s0-1.01,0-1.01Z"/>
      <path class="cls-2" d="M204.11,62.09l3.89-.86c2.95-.65,3.38-1.22,3.38-7.42V17.45h-5.11c-8.06,0-9.79,1.37-10.37,4.1l-.86,4.32h-1.22v-11.38h42.48v11.38h-1.22l-.86-4.32c-.58-2.74-2.3-4.1-10.37-4.1h-5.11v36.36c0,6.19.43,6.77,3.38,7.42l3.89.86v1.01h-21.89v-1.01h-.01Z"/>
      <path class="cls-2" d="M239.46,62.09l3.17-.86c2.95-.79,3.38-1.22,3.38-7.42v-30.03c0-6.19-.43-6.62-3.38-7.42l-3.17-.86v-1.01h20.45v1.01l-3.17.86c-2.95.79-3.38,1.22-3.38,7.42v11.95h25.56v-11.95c0-6.19-.43-6.62-3.38-7.42l-3.17-.86v-1.01h20.45v1.01l-3.17.86c-2.95.79-3.38,1.22-3.38,7.42v30.03c0,6.19.43,6.62,3.38,7.42l3.17.86v1.01h-20.45v-1.01l3.17-.86c2.95-.79,3.38-1.22,3.38-7.42v-14.98h-25.56v14.98c0,6.19.43,6.62,3.38,7.42l3.17.86v1.01h-20.45s0-1.01,0-1.01Z"/>
      <path class="cls-2" d="M297.49,38.9c0-15.99,12.6-25.78,25.06-25.78,13.39,0,25.13,7.92,25.13,25.78,0,14.69-11.52,25.35-25.13,25.35-14.69,0-25.06-8.64-25.06-25.35ZM339.25,38.9c0-16.56-8.5-22.97-16.78-22.97-7.78,0-16.63,6.05-16.63,22.97s8.21,22.47,16.71,22.47,16.71-6.12,16.71-22.47h-.01Z"/>
      <path class="cls-2" d="M357.97,43.3v-19.51c0-6.19-.43-6.62-3.38-7.42l-3.17-.86v-1.01h20.45v1.01l-3.17.86c-2.95.79-3.38,1.22-3.38,7.42v17.79c0,8.93,2.95,18.79,14.04,18.79,11.88,0,13.75-10.95,13.75-20.52v-5.98c0-15.41-.65-16.63-3.74-17.43l-3.53-.94v-1.01h17.71v1.01l-3.17.86c-2.81.79-3.31,2.23-3.31,13.83v9.94c0,12.6-3.89,24.12-19.66,24.12-13.03,0-19.44-8.57-19.44-20.95h0Z"/>
      <path class="cls-2" d="M409.52,61.8l-1.66-10.23,1.3-.36,1.66,3.89c1.37,3.17,4.75,5.98,10.87,5.98,5.62,0,10.87-3.1,10.87-9.36,0-4.97-4.03-7.78-7.92-9.58l-4.75-2.23c-5.26-2.45-10.22-6.41-10.22-12.89,0-8.42,7.56-13.54,15.48-13.54,1.87,0,6.91.22,11.3,2.3v10.3h-1.3l-.94-3.82c-.65-2.74-3.38-5.76-9.65-5.76-4.75,0-9.15,2.88-9.15,7.92,0,4.25,4.03,6.91,8.21,8.86l4.68,2.16c5.18,2.38,10.44,6.19,10.44,13.18,0,10.37-8.78,15.63-17.71,15.63-3.67,0-8.35-.94-11.52-2.45h.01Z"/>
      <path class="cls-2" d="M444.73,62.09l3.17-.86c2.95-.79,3.38-1.22,3.38-7.42v-30.03c0-6.19-.43-6.62-3.38-7.42l-3.17-.86v-1.01h33.99v9.58h-1.15l-.86-3.24c-.72-2.66-2.3-3.38-10.37-3.38h-7.71v18.51h7.63c6.62,0,7.63-.22,8.35-2.74l.79-2.66h1.08v14.11h-1.08l-.86-3.02c-.72-2.52-1.66-2.74-8.28-2.74h-7.63v13.83c0,6.77,1.01,7.42,3.96,7.42h5.54c7.42,0,9.5-1.15,10.95-4.1l1.58-3.31,1.22.29-2.16,10.08h-35v-1.03h.01Z"/>
    </g>
    <g>
      <path class="cls-2" d="M529.85,38h2.22c6.09,0,12.03-2.36,12.03-10.17,0-8.52-5.08-10.6-12.25-10.6h-3.3v36.61c0,6.16.43,6.59,3.36,7.38l3.16.86v1h-20.34v-1l3.16-.86c2.94-.79,3.36-1.22,3.36-7.38v-29.87c0-6.16-.43-6.59-3.36-7.38l-3.16-.86v-1h19.77c8.24,0,17.55,1.51,17.55,11.82,0,7.01-6.3,10.97-12.82,12.47,3.79,4.73,8.38,10.54,12.11,14.82,4.08,4.73,5.95,6.81,7.89,7.44l2.36.79v1l-11.97.06c-4.51-5.81-15.33-19.06-19.77-25.14h0v-.02Z"/>
      <path class="cls-2" d="M564.08,62.07l3.16-.86c2.94-.79,3.36-1.22,3.36-7.38v-29.86c0-6.16-.43-6.59-3.36-7.38l-3.16-.86v-1h33.82v9.52h-1.14l-.86-3.22c-.71-2.65-2.3-3.36-10.31-3.36h-7.66v18.41h7.59c6.59,0,7.6-.21,8.32-2.71l.79-2.65h1.08v14.04h-1.08l-.86-3.02c-.71-2.51-1.65-2.71-8.24-2.71h-7.59v13.76c0,6.73,1,7.38,3.94,7.38h5.52c7.38,0,9.46-1.14,10.89-4.08l1.57-3.3,1.22.29-2.16,10.03h-34.82v-1.03h-.02Z"/>
      <path class="cls-2" d="M609.15,61.79l-1.65-10.17,1.29-.36,1.65,3.87c1.36,3.16,4.73,5.95,10.82,5.95,5.59,0,10.82-3.08,10.82-9.31,0-4.94-4.01-7.74-7.89-9.52l-4.73-2.22c-5.24-2.43-10.17-6.38-10.17-12.82,0-8.38,7.52-13.47,15.41-13.47,1.86,0,6.87.22,11.25,2.3v10.25h-1.29l-.94-3.79c-.65-2.73-3.36-5.73-9.6-5.73-4.73,0-9.09,2.87-9.09,7.89,0,4.22,4.01,6.87,8.17,8.81l4.65,2.14c5.16,2.36,10.39,6.16,10.39,13.11,0,10.31-8.74,15.55-17.63,15.55-3.65,0-8.32-.94-11.46-2.43v-.03h-.02Z"/>
      <path class="cls-2" d="M644.82,39c0-15.9,12.54-25.64,24.93-25.64,13.33,0,25.01,7.89,25.01,25.64,0,14.62-11.46,25.22-25.01,25.22-14.62,0-24.93-8.6-24.93-25.22h0ZM686.37,39c0-16.47-8.46-22.85-16.69-22.85-7.74,0-16.55,6.01-16.55,22.85s8.17,22.34,16.61,22.34,16.61-6.09,16.61-22.34h.02Z"/>
      <path class="cls-2" d="M714.52,38h2.22c6.09,0,12.03-2.36,12.03-10.17,0-8.52-5.08-10.6-12.25-10.6h-3.3v36.61c0,6.16.43,6.59,3.36,7.38l3.16.86v1h-20.34v-1l3.16-.86c2.94-.79,3.36-1.22,3.36-7.38v-29.87c0-6.16-.43-6.59-3.36-7.38l-3.16-.86v-1h19.77c8.24,0,17.55,1.51,17.55,11.82,0,7.01-6.3,10.97-12.82,12.47,3.79,4.73,8.38,10.54,12.11,14.82,4.08,4.73,5.95,6.81,7.89,7.44l2.36.79v1l-11.97.06c-4.51-5.81-15.33-19.06-19.77-25.14h0v-.02Z"/>
      <path class="cls-2" d="M754.19,62.07l3.87-.86c2.94-.65,3.36-1.22,3.36-7.38V17.66h-5.09c-8.03,0-9.74,1.36-10.31,4.08l-.86,4.3h-1.22v-11.31h42.26v11.31h-1.22l-.86-4.3c-.57-2.73-2.29-4.08-10.31-4.08h-5.08v36.18c0,6.16.43,6.73,3.36,7.38l3.87.86v1h-21.77v-1Z"/>
    </g>
  </g>
  <g>
    <path class="cls-2" d="M175.82,110.89l91.71-3.01c1.52.18,2.68,1.49,2.68,3.03s-1.16,2.84-2.68,3.03c-30.57-1.02-61.14-2.03-91.71-3.05h0Z"/>
    <path class="cls-2" d="M626.28,110.94l-91.71,3.01c-1.52-.18-2.68-1.49-2.68-3.03s1.16-2.84,2.68-3.03c30.57,1.02,61.14,2.03,91.71,3.05Z"/>
    <text class="cls-1" transform="translate(283.36 123.47)"><tspan class="cls-3" x="0" y="0">O</tspan><tspan x="36.03" y="0">R</tspan><tspan class="cls-5" x="66.15" y="0">L</tspan><tspan x="92.66" y="0">AN</tspan><tspan class="cls-4" x="162.24" y="0">D</tspan><tspan x="198.93" y="0">O</tspan></text>
  </g>
</svg>