<?xml version="1.0" encoding="UTF-8"?>
<svg id="Layer_1" data-name="Layer 1" xmlns="http://www.w3.org/2000/svg" viewBox="0 0 720 720">
  <defs>
    <style>
      .cls-1 {
        fill: #497d9c;
      }
    </style>
  </defs>
  <g>
    <path class="cls-1" d="M342.99,524.52c-37.06,21.77-68.06,37.65-110.19,35.63-16.55-.8-32.09-4.14-47.17-12.59-15.84-8.88-29.88-21.09-41.81-36.68,8.84,6.59,17.53,12.03,27.59,15.74,36.8,13.58,74.02,9.68,110.17-5.81,16.75-7.18,32.15-16.07,47.88-26.35,46.3-30.24,87.9-55.75,141.56-50.49,34.18,3.35,70.05,20.19,96.05,50.12-11.4-8.65-23.62-15.6-37.12-20.27-38.85-13.44-85.36-4.87-122.39,13.81l-12.45,6.28-52.12,30.61Z"/>
    <path class="cls-1" d="M382.23,603.86c-30.21,7.88-71.77,6.48-101.63-2.7,1.52-.58,3.34-.29,5.22-.19,30.78,1.68,66.65-8.04,94.36-25.04l34.62-21.24c9.96-6.11,19.39-11.97,29.65-17.32,43.31-22.54,92.27-27.01,132.13,7.95l-10.31-3.88c-33.18-11.59-68.45.78-98.53,19.54l-31.29,19.51c-17.26,10.76-34.91,18.33-54.23,23.36Z"/>
    <path class="cls-1" d="M275,508.17c-24.98,10.45-46.24,13.08-71.33,11.36-21.41-2.46-43.72-9.17-60.78-26.78,19.88-6.23,63.63-16.55,108.52,2.49,8.93,3.79,16.77,8.26,23.6,12.93Z"/>
    <path class="cls-1" d="M503.67,572.57c-12.93,7.66-20.61,13.03-33.62,17.37-8.1,2.7-16.68,4.47-26.63,5.47,15.85-10.59,28.45-18.3,37.17-23.45,3.82-2.26,8.33-4.87,14.43-7.83,7-3.4,14.36-7.04,24.28-9.52,9.6-2.4,17.85-2.95,23.5-3.02-16.8,8.14-30.01,15.58-39.13,20.99Z"/>
    <path class="cls-1" d="M387,554.41c-30.78,19.05-62.82,34.92-97.52,36.82-34.14,1.86-65.52-6.32-94.62-28.31l8.71,3.72c25.85,8.67,50.03,9.08,76.34,2.56,18.42-4.57,35.75-10.96,52.67-21.18l44.18-26.67c11.21-6.77,21.76-13.06,33.39-18.76,33.18-16.27,69.34-25.72,104.86-17.04,23.24,5.68,44.53,18.66,62.12,38.46-1.64-.51-3.27-1.28-4.79-2.28-34.04-22.39-75.78-21.85-111.86-7.77-13.11,5.11-25.38,10.71-37.64,18.3l-35.82,22.17Z"/>
  </g>
  <path class="cls-1" d="M288.99,501.8c-10.43-8.57-30.32-22.51-58.88-29.18-40.42-9.43-73.47,1.49-86.28,6.5,16.11-8.43,54.33-25.42,101.02-17.24,14.92,2.61,27.57,7.24,37.69,12.05,11.71-78.97,23.42-157.94,35.13-236.92-1.11-.21-3.05-.75-4.87-2.3-.99-.84-2.86-2.44-3.13-5.09-.23-2.25.82-3.99,1.24-4.61l.18-16.58c.67-.69,1.74-1.62,3.26-2.37,1.99-.98,3.81-1.19,4.88-1.22.06-.82.13-1.65.19-2.47l.09-29.12-4.42-1.89c-.88-.38-.79-3.58.12-3.97l4.15-1.8c5.03-15.27,16.27-22.06,31.7-25.58,1.56-10.76,4.61-29.12,7.58-29,2.89.11,4.53,17.62,5.3,28.54l9.22,3.05c10.95,3.62,19.26,12.01,23.13,22.73l4.26,2c.89.42,1.24,3.8.33,4.21l-4.36,2,.69,30.8c.97-.04,2.85.03,4.87,1.03,1.29.64,2.19,1.44,2.77,2.04.12,5.54.23,11.08.35,16.62.51.64,1.48,2.06,1.65,4.05.31,3.63-2.29,6.12-2.84,6.65-1.97,1.88-4.27,2.37-4.91,2.49-.26.05-.48.08-.67.11-.37.04-.63.06-.64.06-.42.07,8.74,60.42,29.62,194.41-7.16,1.56-17.93,4.23-30.62,8.77-6.59,2.36-25.17,9.32-67.07,34.93-10.37,6.33-24.38,15.17-40.74,26.32ZM384.38,165.26c-11.43-2.18-25.91-3.48-42.31-1.38-4.55.58-8.84,1.37-12.85,2.29,18.39-.3,36.77-.61,55.16-.91ZM368.09,201.29l-.28-26.02c-.06-5.96-19.18-5.65-19.12,1.33l.22,24.64,19.18.05ZM342.62,201.8l-.24-25.47c-.51-.73-1.06-1.28-1.61-1.71-5.24-4.12-14.08.04-15.02.5.04,5.03.08,10.07.13,15.1l.23,13.53,16.51-1.95ZM390.35,203.84l-.4-30.42c-1.45-.56-6.51-2.31-11.73-.03-1.66.72-2.93,1.68-3.86,2.54.07,8.56.13,17.12.2,25.67l15.8,2.24ZM396.8,224.5v-7.72c-10.66-2.05-23.77-3.71-38.78-3.78-14.98-.07-28.08,1.48-38.73,3.42l-.05,7.35c11.26-1.48,24.3-2.49,38.78-2.35,14.51.14,27.54,1.39,38.78,3.08ZM348.21,334.16c-6.33,4.64-12.66,9.29-18.99,13.93l31.35-15.42,39.7-17.42-3.12-22.66-6.81-55.22c-3.99-.97-8.57-1.83-13.67-2.33-7.29-.72-13.78-.54-19.14-.03-3.65,3.62-7.31,7.25-10.96,10.87l17.75-8.43c-.52.68-1.83,2.17-2.47,2.59l-15.52,10.01,10.49-4.06,9.94-3.6c-4.65,3.07-9.31,6.13-13.96,9.2-3.85,2.58-7.71,5.16-11.56,7.75l18.11-5.91-14.75,9.21-14.29,8.85,24.58-10.65-21.43,13.79c-2.17,1.39-4.13,2.94-6.25,4.57,3.12-1.45,6.28-2.94,9.46-4.48,3.34-1.61,6.62-3.23,9.85-4.84-2.37,1.58-4.75,3.17-7.12,4.75l-10.65,7.25-5.39,3.67,12.91-4.85-14.17,8.34c4.39-1.66,8.78-3.32,13.18-4.97-4.14,3.19-8.29,6.39-12.43,9.58l9.38-4.16-9.97,6.98,10.2-3.62c-1.52,1.23-3.28,2.56-5.03,3.67l-6.1,3.89c2.63-.68,5.21-1.46,7.2-2.43l6.81-3.32-15.3,11.34c0,.06.02.14.07.21.42.56,2.67-.41,7.69-2.97,1.44-.73,3.37-1.73,5.64-2.94l-10.59,8.68c-1.06.87-2.29,2.25-2.72,3.14,2.24-1.42,4.02-2.66,6.16-3.83l10.71-5.83-17.95,13.86c5.79-2.14,13.29-6.53,18.26-9.58-1.85,1.75-3.92,3.75-5.97,5.44l-12.1,10,12.68-7.05,6.38-3.55-9.5,7.19-10.52,8.48c1.76-1.04,3.53-2.08,5.3-3.12,7.31-4.28,14.6-8.48,21.87-12.6l-8.21,5.63c-5.87,4.03-11.5,7.53-16.01,13,5.39-3.19,10.79-6.38,16.18-9.57l-5.97,3.99-10.94,9.46,8.03-4.29,7.91-4.15-14.28,10.61c7.62-2.23,13.82-9.28,19.99-10.89l-15.09,10.88-10.7,7.99,21.02-10.86c3.37-1.74,6.75-3.27,9.92-4.63l-18.49,13.22-8.56,4.96,7.26-2.36c-7.02,4.45-10.48,6.75-10.38,6.92.1.16,3.68-1.77,10.75-5.8,6.79-3.82,13.58-7.65,20.37-11.47ZM324.01,385.8c2.56-1.52,5.11-3.05,7.67-4.57-7.17,5.93-14.33,11.85-21.5,17.78,3.23-1.73,6.48-3.47,9.74-5.24,3.67-2,7.31-3.99,10.92-5.99-3.62,2.71-7.24,5.42-10.87,8.13,4.49-2.31,8.98-4.63,13.46-6.94-4.36,2.51-8.9,5.29-13.55,8.35-4.16,2.74-8.06,5.48-11.72,8.18,4.34-2,8.68-4.01,13.03-6.01l-7.24,4.45,7.63-2.56-12.38,8.65,6.44-3.35c3.12-1.63,6.32-3.13,9.6-4.4-6.2,4.13-12.61,6.71-16.97,12.96,5.92-3.56,11.84-7.12,17.77-10.67-2.57,2.11-5.49,4.26-8.78,6.32-1.12.7-2.22,1.36-3.31,1.97l5.25-1.53-10.01,7.55,15.55-7.26-11.63,8.49-5.05,3.83,4.66-2.18c7.26-3.4,13.76-6.97,20.65-11.11l-19.95,14.25,8.22-4.01,14.72-6.86c-4.42,2.66-8.85,5.32-13.27,7.98-5.31,3.3-10.61,6.6-15.92,9.9l7.65-3.31,11.97-4.99c-2.56,2.32-5.26,4.68-8.1,7.06-2.92,2.44-5.8,4.74-8.61,6.9l12.06-6.57,11.3-6.45c-7.64,6.34-15.28,12.69-22.92,19.03-2.33,1.76-4.38,3.45-6.21,5.57,10.65-6.84,21.3-13.69,31.95-20.53-7.69,5.87-15.39,11.73-23.08,17.6l7.45-4.78,9.88-6,11.84-6.99c-7.64,5.59-15.29,11.18-22.93,16.77l-14.19,10.94c-1.31,1.03-2.62,2.07-3.93,3.1l13.11-7.93,9.94-5.87c-1.74,1.55-3.48,3.09-5.23,4.64l-5.77,4.18c1.88-.7,4.49-1.82,5.99-2.83l5.48-3.68c2.8-1.88,5.3-3.55,7.94-4.97l-9.89,8.05-17.58,13.16c12.13-6.01,25.1-16.02,38.08-22.87-9.83,9.35-20.84,13.97-30.11,21.91l37.99-21.6c-14.35,9.52-28.7,19.05-43.05,28.57l10.37-5.56,9.85-5.32,46.44-23.07,39.71-20.92-3.15-23.87-3.56-23.33-7.52-51.06c-5.51,2.65-9.51,4.81-14.19,7.5l-22.18,12.75-17.78,10.85c5.84-2.41,11.05-4.98,17.11-6.7-4.78,2.8-9.51,4.98-13.97,8.24l-13.05,9.53,17.11-8.62-9.61,7.47c-5.18,4.03-11.05,6.62-15.6,11.07l10.06-5.55c7.39-4.08,11.98-8.47,17.97-10.87l-11.7,9.05c-4.35,3.36-8.91,6.34-13.55,9.3-3.87,2.46-7.62,4.16-10.76,7.82l26.43-13.91-8.09,5.78c-12.4,8.87-12.06,10.87-25.78,19.35,6.03-3.67,12.07-7.34,18.1-11.01,1.71-1.22,3.61-2.4,5.19-3.36-4.01,3.4-8.03,6.81-12.04,10.21ZM325.27,371.35q.98-.98,0,0t0,0ZM317.27,382.34q.98-.98,0,0-.98.98,0,0ZM307.27,439.28q.98-.98,0,0-.98.98,0,0ZM304.27,441.28q.98-.98,0,0-.98.98,0,0ZM303.27,465.26q.98-.98,0,0-.98.98,0,0Z"/>
  <path class="cls-1" d="M368.37,393.09l-10.98.05-.17-26.98c-.01-1.77,3.01-4.51,4.67-4.59,1.85-.09,5.76,2.49,5.81,4.5l.67,27.01Z"/>
  <path class="cls-1" d="M341.27,374.35q-.98.98,0,0t0,0Z"/>
  <path class="cls-1" d="M366.97,299.01l-11.03-.15-.06-23.53c0-2.36,2.03-5.23,4.02-5.91,1.82-.62,6.14,1.73,6.22,4.02l.85,25.58Z"/>
  <path class="cls-1" d="M415.78,178.14c16.4-6.87,32.81-13.74,49.21-20.6.1-.32.38-1.37,0-2.57-.52-1.62-1.84-2.21-2.05-2.3-16.22,7.07-32.44,14.13-48.66,21.2-.02.5.02,1.4.39,2.4.33.9.8,1.52,1.11,1.86Z"/>
  <path class="cls-1" d="M421.3,193.61c18.73.82,37.46,1.64,56.19,2.46.22-.25.88-1.09.94-2.37.08-1.72-1.01-2.84-1.18-3.01-18.62-.56-37.25-1.11-55.87-1.67-.2.46-.5,1.3-.5,2.38,0,.98.23,1.75.41,2.2Z"/>
  <path class="cls-1" d="M415.45,207.57c14.09,8.04,28.18,16.07,42.27,24.11.26-.15,1.09-.65,1.61-1.78.7-1.53.28-2.97.22-3.19-14.1-7.75-28.21-15.51-42.31-23.26-.32.34-.87.98-1.27,1.97-.37.89-.47,1.68-.5,2.16Z"/>
  <path class="cls-1" d="M298.65,178.51c-16.4-6.87-32.81-13.74-49.21-20.6-.1-.32-.38-1.37,0-2.57.52-1.62,1.84-2.21,2.05-2.3,16.22,7.07,32.44,14.13,48.66,21.2.02.5-.02,1.4-.39,2.4-.33.9-.8,1.52-1.11,1.86Z"/>
  <path class="cls-1" d="M293.14,193.98c-18.73.82-37.46,1.64-56.19,2.46-.22-.25-.88-1.09-.94-2.37-.08-1.72,1.01-2.84,1.18-3.01,18.62-.56,37.25-1.11,55.87-1.67.2.46.5,1.3.5,2.38,0,.98-.23,1.75-.41,2.2Z"/>
  <path class="cls-1" d="M298.98,207.94c-14.09,8.04-28.18,16.07-42.27,24.11-.26-.15-1.09-.65-1.61-1.78-.7-1.53-.28-2.97-.22-3.19,14.1-7.75,28.21-15.51,42.31-23.26.32.34.87.98,1.27,1.97.37.89.47,1.68.5,2.16Z"/>
</svg>